<svg version="1.1" xmlns="http://www.w3.org/2000/svg" viewBox="0 0 527 480.5" width="527" height="480.5" filter="invert(93%) hue-rotate(180deg)">
  <!-- svg-source:excalidraw -->
  
  <defs>
    <style class="style-fonts">
      @font-face {
        font-family: "Virgil";
        src: url("https://excalidraw.com/Virgil.woff2");
      }
      @font-face {
        font-family: "Cascadia";
        src: url("https://excalidraw.com/Cascadia.woff2");
      }
    </style>
  </defs>
  <rect x="0" y="0" width="527" height="480.5" fill="#ffffff"/><g transform="translate(199 88.5) rotate(0 152 107)" stroke="none"><path fill="#000000" d="M 0.58,-1.45 Q 0.58,-1.45 3.44,-0.26 6.30,0.91 12.16,3.74 18.01,6.57 27.40,11.52 36.79,16.47 48.54,22.89 60.29,29.31 74.20,37.22 88.11,45.14 102.09,53.68 116.06,62.23 128.93,71.35 141.80,80.47 152.44,88.37 163.08,96.27 171.08,103.10 179.08,109.93 184.79,115.44 190.51,120.94 196.39,127.03 202.27,133.11 210.77,140.83 219.27,148.56 230.63,157.58 241.98,166.59 253.12,174.73 264.27,182.87 273.88,189.49 283.50,196.11 289.35,200.68 295.20,205.24 297.97,207.47 300.74,209.69 301.98,210.55 303.22,211.41 303.38,211.59 303.55,211.78 303.65,212.01 303.74,212.23 303.76,212.48 303.78,212.73 303.72,212.97 303.67,213.21 303.53,213.41 303.40,213.62 303.21,213.78 303.01,213.93 302.78,214.02 302.55,214.10 302.30,214.11 302.05,214.12 301.82,214.04 301.58,213.97 301.38,213.83 301.18,213.68 301.04,213.48 300.89,213.28 300.82,213.04 300.75,212.81 300.75,212.56 300.76,212.31 300.84,212.08 300.93,211.85 301.08,211.66 301.24,211.46 301.45,211.33 301.66,211.20 301.90,211.14 302.14,211.08 302.38,211.10 302.63,211.12 302.86,211.22 303.08,211.31 303.27,211.48 303.45,211.64 303.57,211.86 303.70,212.07 303.74,212.32 303.79,212.56 303.76,212.81 303.72,213.05 303.61,213.27 303.50,213.49 303.33,213.67 303.15,213.84 302.93,213.95 302.71,214.06 302.46,214.10 302.22,214.13 301.98,214.08 301.73,214.04 301.52,213.91 301.30,213.79 301.30,213.79 301.30,213.79 300.20,212.77 299.09,211.74 296.34,209.53 293.58,207.32 287.80,202.80 282.01,198.28 272.36,191.64 262.71,185.00 251.53,176.83 240.34,168.66 228.92,159.58 217.50,150.51 208.94,142.73 200.37,134.95 194.52,128.90 188.67,122.85 183.01,117.40 177.36,111.95 169.42,105.18 161.49,98.41 150.87,90.53 140.25,82.65 127.45,73.59 114.66,64.54 100.71,56.02 86.77,47.51 72.87,39.62 58.97,31.74 47.23,25.35 35.48,18.97 26.12,14.07 16.76,9.18 10.98,6.43 5.19,3.68 2.30,2.56 -0.58,1.45 -0.74,1.35 -0.91,1.26 -1.04,1.14 -1.18,1.01 -1.29,0.85 -1.39,0.70 -1.45,0.52 -1.52,0.34 -1.54,0.15 -1.56,-0.02 -1.53,-0.21 -1.50,-0.40 -1.43,-0.57 -1.36,-0.75 -1.26,-0.90 -1.15,-1.05 -1.00,-1.17 -0.86,-1.30 -0.69,-1.38 -0.52,-1.47 -0.34,-1.51 -0.16,-1.55 0.02,-1.55 0.21,-1.54 0.39,-1.49 0.58,-1.45 0.58,-1.45 L 0.58,-1.45 Z"/></g><g transform="translate(503 302.5) rotate(0 -163.5 -90.5)" stroke="none"><path fill="#000000" d="M 0.63,1.42 Q 0.63,1.42 -1.96,2.54 -4.56,3.66 -12.27,7.28 -19.98,10.90 -34.20,17.33 -48.42,23.76 -67.73,30.82 -87.05,37.87 -113.75,42.90 -140.44,47.93 -167.61,50.92 -194.77,53.92 -216.70,54.32 -238.64,54.73 -253.51,52.59 -268.38,50.45 -276.58,46.88 -284.78,43.31 -289.57,36.74 -294.35,30.17 -298.38,18.97 -302.41,7.77 -306.68,-6.44 -310.95,-20.65 -314.79,-36.20 -318.62,-51.75 -321.41,-68.74 -324.19,-85.74 -323.65,-108.30 -323.12,-130.86 -320.86,-144.81 -318.60,-158.76 -310.67,-173.19 -302.74,-187.62 -290.07,-199.29 -277.41,-210.96 -262.74,-218.54 -248.07,-226.11 -233.13,-229.92 -218.19,-233.72 -205.15,-234.19 -192.11,-234.65 -182.16,-232.81 -172.21,-230.97 -164.98,-226.96 -157.74,-222.94 -151.70,-215.95 -145.66,-208.96 -140.20,-197.28 -134.74,-185.60 -129.84,-169.98 -124.94,-154.36 -121.41,-135.89 -117.89,-117.43 -115.53,-99.22 -113.17,-81.02 -111.88,-66.08 -110.59,-51.15 -110.33,-39.59 -110.07,-28.04 -110.82,-20.48 -111.58,-12.92 -112.48,-8.24 -113.38,-3.57 -114.22,0.11 -115.06,3.80 -115.16,4.03 -115.26,4.27 -115.44,4.45 -115.61,4.64 -115.83,4.76 -116.05,4.88 -116.30,4.93 -116.55,4.97 -116.81,4.93 -117.06,4.90 -117.28,4.78 -117.51,4.66 -117.69,4.48 -117.86,4.30 -117.97,4.07 -118.08,3.84 -118.11,3.59 -118.15,3.34 -118.09,3.09 -118.04,2.84 -117.92,2.62 -117.79,2.40 -117.60,2.23 -117.40,2.07 -117.17,1.97 -116.93,1.87 -116.68,1.85 -116.43,1.84 -116.18,1.90 -115.93,1.97 -115.72,2.11 -115.51,2.25 -115.35,2.45 -115.20,2.65 -115.11,2.89 -115.03,3.13 -115.02,3.38 -115.02,3.63 -115.10,3.88 -115.18,4.12 -115.33,4.32 -115.48,4.53 -115.69,4.67 -115.90,4.82 -116.14,4.89 -116.38,4.96 -116.64,4.95 -116.89,4.94 -117.13,4.85 -117.37,4.76 -117.56,4.60 -117.76,4.43 -117.89,4.22 -118.03,4.00 -118.09,3.75 -118.14,3.51 -118.12,3.25 -118.10,3.00 -118.10,3.00 -118.10,3.00 -117.03,-0.53 -115.96,-4.07 -115.08,-8.63 -114.19,-13.18 -113.44,-20.58 -112.69,-27.98 -112.95,-39.45 -113.21,-50.92 -114.49,-65.80 -115.78,-80.68 -118.12,-98.81 -120.47,-116.94 -123.96,-135.26 -127.45,-153.58 -132.28,-169.04 -137.12,-184.49 -142.40,-195.89 -147.67,-207.28 -153.37,-213.98 -159.06,-220.69 -165.90,-224.55 -172.74,-228.41 -182.38,-230.22 -192.03,-232.02 -204.79,-231.60 -217.56,-231.17 -232.22,-227.47 -246.88,-223.77 -261.26,-216.39 -275.65,-209.01 -288.06,-197.66 -300.47,-186.32 -308.25,-172.30 -316.02,-158.29 -318.25,-144.54 -320.49,-130.79 -321.04,-108.47 -321.59,-86.16 -318.83,-69.27 -316.06,-52.38 -312.25,-36.89 -308.43,-21.41 -304.17,-7.26 -299.92,6.88 -296.05,17.77 -292.19,28.66 -287.88,34.83 -283.56,41.00 -275.77,44.41 -267.98,47.82 -253.33,49.94 -238.68,52.05 -216.87,51.64 -195.06,51.23 -168.01,48.24 -140.95,45.25 -114.47,40.26 -87.99,35.28 -68.79,28.23 -49.58,21.19 -35.40,14.74 -21.21,8.29 -13.49,4.61 -5.78,0.93 -3.20,-0.24 -0.63,-1.42 -0.45,-1.48 -0.27,-1.53 -0.08,-1.54 0.10,-1.55 0.28,-1.52 0.47,-1.48 0.64,-1.41 0.81,-1.33 0.96,-1.21 1.10,-1.09 1.22,-0.95 1.34,-0.80 1.41,-0.62 1.49,-0.45 1.52,-0.27 1.55,-0.08 1.54,0.10 1.53,0.28 1.47,0.46 1.42,0.64 1.32,0.80 1.22,0.96 1.09,1.10 0.95,1.23 0.79,1.33 0.63,1.42 0.63,1.42 L 0.63,1.42 Z"/></g><g transform="translate(488 159.5) rotate(0 14.5 155.5)" stroke="none"><path fill="#000000" d="M 1.39,-0.69 Q 1.39,-0.69 2.80,2.19 4.21,5.08 5.99,11.32 7.78,17.56 9.67,26.25 11.56,34.93 13.51,45.82 15.46,56.70 16.58,68.85 17.70,81.00 18.46,95.65 19.21,110.30 19.82,127.74 20.43,145.18 21.55,163.79 22.67,182.39 23.72,200.08 24.76,217.77 25.78,234.48 26.80,251.20 27.81,264.62 28.82,278.04 29.25,286.93 29.68,295.82 29.86,300.17 30.04,304.52 30.18,306.36 30.31,308.21 30.29,308.44 30.26,308.67 30.16,308.88 30.06,309.08 29.90,309.25 29.73,309.42 29.53,309.52 29.32,309.63 29.09,309.66 28.86,309.70 28.63,309.66 28.41,309.62 28.20,309.51 28.00,309.40 27.84,309.23 27.68,309.06 27.59,308.84 27.49,308.63 27.47,308.40 27.45,308.17 27.50,307.94 27.55,307.72 27.68,307.52 27.80,307.32 27.98,307.18 28.16,307.03 28.37,306.94 28.59,306.86 28.82,306.85 29.05,306.84 29.28,306.91 29.50,306.97 29.69,307.10 29.88,307.24 30.02,307.42 30.16,307.61 30.23,307.83 30.30,308.05 30.30,308.28 30.29,308.51 30.22,308.73 30.14,308.95 30.00,309.14 29.85,309.32 29.66,309.45 29.47,309.57 29.24,309.63 29.02,309.69 28.79,309.68 28.55,309.66 28.34,309.57 28.13,309.48 27.95,309.33 27.78,309.18 27.66,308.98 27.54,308.78 27.49,308.55 27.45,308.33 27.45,308.33 27.45,308.33 27.43,306.48 27.41,304.63 27.23,300.29 27.04,295.95 26.61,287.09 26.19,278.24 25.17,264.80 24.16,251.36 23.14,234.64 22.11,217.93 21.06,200.24 20.01,182.55 18.88,163.91 17.75,145.28 17.14,127.86 16.52,110.45 15.75,95.85 14.98,81.25 13.86,69.22 12.74,57.19 10.78,46.36 8.81,35.53 6.91,26.95 5.00,18.36 3.27,12.39 1.53,6.41 0.06,3.55 -1.39,0.69 -1.46,0.52 -1.52,0.34 -1.54,0.15 -1.56,-0.03 -1.53,-0.21 -1.50,-0.40 -1.43,-0.57 -1.36,-0.75 -1.25,-0.90 -1.14,-1.05 -1.00,-1.18 -0.86,-1.30 -0.69,-1.38 -0.52,-1.47 -0.34,-1.51 -0.15,-1.55 0.03,-1.55 0.21,-1.54 0.40,-1.49 0.58,-1.44 0.74,-1.35 0.91,-1.26 1.05,-1.14 1.18,-1.01 1.29,-0.85 1.39,-0.69 1.39,-0.69 L 1.39,-0.69 Z"/></g><g transform="translate(10 180.5) rotate(0 0.00004999999998744897 0.00005000000000165983)" stroke="none"><path fill="#000000" d="M 1.57,-1.57 Q 1.57,-1.57 1.77,-1.27 1.98,-0.98 2.09,-0.64 2.20,-0.29 2.19,0.05 2.18,0.41 2.05,0.75 1.93,1.09 1.70,1.37 1.48,1.65 1.18,1.84 0.87,2.04 0.52,2.12 0.18,2.21 -0.17,2.18 -0.53,2.15 -0.86,2.01 -1.19,1.87 -1.46,1.63 -1.73,1.39 -1.90,1.07 -2.08,0.76 -2.15,0.41 -2.21,0.05 -2.17,-0.29 -2.12,-0.65 -1.96,-0.97 -1.80,-1.29 -1.54,-1.54 -1.29,-1.80 -0.97,-1.96 -0.65,-2.12 -0.29,-2.17 0.06,-2.21 0.41,-2.15 0.76,-2.08 1.07,-1.90 1.39,-1.73 1.63,-1.46 1.87,-1.19 2.01,-0.86 2.15,-0.53 2.18,-0.17 2.21,0.18 2.12,0.52 2.03,0.87 1.84,1.18 1.65,1.48 1.37,1.70 1.09,1.93 0.75,2.05 0.41,2.18 0.05,2.19 -0.30,2.20 -0.64,2.09 -0.98,1.98 -1.27,1.77 -1.57,1.56 -1.57,1.57 -1.57,1.57 -1.73,1.35 -1.90,1.14 -2.01,0.90 -2.12,0.66 -2.16,0.39 -2.21,0.13 -2.20,-0.13 -2.18,-0.40 -2.10,-0.65 -2.02,-0.91 -1.88,-1.14 -1.74,-1.36 -1.55,-1.55 -1.36,-1.74 -1.14,-1.88 -0.91,-2.02 -0.65,-2.10 -0.40,-2.18 -0.13,-2.20 0.13,-2.21 0.39,-2.16 0.66,-2.12 0.90,-2.01 1.14,-1.90 1.35,-1.73 1.57,-1.57 1.57,-1.57 L 1.57,-1.57 Z"/></g><g transform="translate(10 180.5) rotate(0 83 20.75)" stroke="none"><path fill="#000000" d="M 0.58,-1.59 Q 0.58,-1.59 6.03,0.46 11.47,2.52 20.91,5.27 30.36,8.01 43.57,11.34 56.78,14.68 73.17,18.55 89.56,22.42 104.44,25.94 119.32,29.46 131.09,32.11 142.87,34.76 149.47,36.32 156.06,37.88 160.28,38.70 164.49,39.52 164.73,39.62 164.97,39.72 165.17,39.88 165.36,40.05 165.50,40.27 165.63,40.50 165.68,40.75 165.74,41.00 165.71,41.26 165.68,41.51 165.57,41.75 165.46,41.98 165.28,42.17 165.11,42.35 164.88,42.47 164.65,42.59 164.39,42.63 164.14,42.68 163.88,42.63 163.63,42.59 163.40,42.47 163.17,42.35 163.00,42.16 162.82,41.97 162.71,41.74 162.61,41.50 162.58,41.24 162.55,40.99 162.61,40.74 162.67,40.48 162.80,40.26 162.93,40.04 163.13,39.88 163.33,39.71 163.57,39.62 163.81,39.52 164.07,39.51 164.32,39.50 164.57,39.57 164.82,39.64 165.03,39.78 165.25,39.93 165.40,40.13 165.56,40.34 165.64,40.58 165.72,40.83 165.72,41.09 165.72,41.34 165.63,41.59 165.55,41.83 165.39,42.04 165.24,42.24 165.02,42.39 164.81,42.53 164.56,42.60 164.31,42.67 164.05,42.65 163.80,42.64 163.80,42.64 163.80,42.64 159.62,41.58 155.44,40.52 148.86,38.97 142.27,37.43 130.48,34.80 118.68,32.17 103.80,28.68 88.91,25.18 72.49,21.35 56.07,17.51 42.79,14.22 29.52,10.93 19.94,8.22 10.37,5.52 4.89,3.55 -0.58,1.59 -0.76,1.50 -0.95,1.40 -1.10,1.27 -1.26,1.13 -1.37,0.97 -1.49,0.80 -1.57,0.61 -1.64,0.42 -1.67,0.21 -1.69,0.01 -1.67,-0.18 -1.65,-0.39 -1.58,-0.58 -1.51,-0.77 -1.39,-0.94 -1.28,-1.11 -1.13,-1.25 -0.97,-1.38 -0.79,-1.48 -0.61,-1.58 -0.41,-1.63 -0.22,-1.68 -0.01,-1.68 0.18,-1.68 0.38,-1.64 0.58,-1.59 0.58,-1.59 L 0.58,-1.59 Z"/></g><g transform="translate(52 10) rotate(0 0.00004999999998744897 0.00004999999998744897)" stroke="none"><path fill="#000000" d="M 1.57,-1.57 Q 1.57,-1.57 1.77,-1.27 1.98,-0.98 2.09,-0.64 2.20,-0.29 2.19,0.05 2.18,0.41 2.05,0.75 1.93,1.09 1.70,1.37 1.48,1.65 1.18,1.84 0.87,2.04 0.52,2.12 0.18,2.21 -0.17,2.18 -0.53,2.15 -0.86,2.01 -1.19,1.87 -1.46,1.63 -1.73,1.39 -1.90,1.07 -2.08,0.76 -2.15,0.41 -2.21,0.05 -2.17,-0.29 -2.12,-0.65 -1.96,-0.97 -1.80,-1.29 -1.54,-1.54 -1.29,-1.80 -0.97,-1.96 -0.65,-2.12 -0.29,-2.17 0.06,-2.21 0.41,-2.15 0.76,-2.08 1.07,-1.90 1.39,-1.73 1.63,-1.46 1.87,-1.19 2.01,-0.86 2.15,-0.53 2.18,-0.17 2.21,0.18 2.12,0.52 2.03,0.87 1.84,1.18 1.65,1.48 1.37,1.70 1.09,1.93 0.75,2.05 0.41,2.18 0.05,2.19 -0.30,2.20 -0.64,2.09 -0.98,1.98 -1.27,1.77 -1.57,1.56 -1.57,1.57 -1.57,1.57 -1.73,1.35 -1.90,1.14 -2.01,0.90 -2.12,0.66 -2.16,0.39 -2.21,0.13 -2.20,-0.13 -2.18,-0.40 -2.10,-0.65 -2.02,-0.91 -1.88,-1.14 -1.74,-1.36 -1.55,-1.55 -1.36,-1.74 -1.14,-1.88 -0.91,-2.02 -0.65,-2.10 -0.40,-2.18 -0.13,-2.20 0.13,-2.21 0.39,-2.16 0.66,-2.12 0.90,-2.01 1.14,-1.90 1.35,-1.73 1.57,-1.57 1.57,-1.57 L 1.57,-1.57 Z"/></g></svg>