<svg version="1.1" xmlns="http://www.w3.org/2000/svg" viewBox="0 0 622.2179487179487 480.5" width="622.2179487179487" height="480.5" filter="invert(93%) hue-rotate(180deg)">
  <!-- svg-source:excalidraw -->
  
  <defs>
    <style class="style-fonts">
      @font-face {
        font-family: "Virgil";
        src: url("https://excalidraw.com/Virgil.woff2");
      }
      @font-face {
        font-family: "Cascadia";
        src: url("https://excalidraw.com/Cascadia.woff2");
      }
    </style>
  </defs>
  <rect x="0" y="0" width="622.2179487179487" height="480.5" fill="#ffffff"/><g transform="translate(294.2179487179487 88.5) rotate(0 152 107)" stroke="none"><path fill="#000000" d="M 0.58,-1.45 Q 0.58,-1.45 3.44,-0.26 6.30,0.91 12.16,3.74 18.01,6.57 27.40,11.52 36.79,16.47 48.54,22.89 60.29,29.31 74.20,37.22 88.11,45.14 102.09,53.68 116.06,62.23 128.93,71.35 141.80,80.47 152.44,88.37 163.08,96.27 171.08,103.10 179.08,109.93 184.79,115.44 190.51,120.94 196.39,127.03 202.27,133.11 210.77,140.83 219.27,148.56 230.63,157.58 241.98,166.59 253.12,174.73 264.27,182.87 273.88,189.49 283.50,196.11 289.35,200.68 295.20,205.24 297.97,207.47 300.74,209.69 301.98,210.55 303.22,211.41 303.38,211.59 303.55,211.78 303.65,212.01 303.74,212.23 303.76,212.48 303.78,212.73 303.72,212.97 303.67,213.21 303.53,213.41 303.40,213.62 303.21,213.78 303.01,213.93 302.78,214.02 302.55,214.10 302.30,214.11 302.05,214.12 301.82,214.04 301.58,213.97 301.38,213.83 301.18,213.68 301.04,213.48 300.89,213.28 300.82,213.04 300.75,212.81 300.75,212.56 300.76,212.31 300.84,212.08 300.93,211.85 301.08,211.66 301.24,211.46 301.45,211.33 301.66,211.20 301.90,211.14 302.14,211.08 302.38,211.10 302.63,211.12 302.86,211.22 303.08,211.31 303.27,211.48 303.45,211.64 303.57,211.86 303.70,212.07 303.74,212.32 303.79,212.56 303.76,212.81 303.72,213.05 303.61,213.27 303.50,213.49 303.33,213.67 303.15,213.84 302.93,213.95 302.71,214.06 302.46,214.10 302.22,214.13 301.98,214.08 301.73,214.04 301.52,213.91 301.30,213.79 301.30,213.79 301.30,213.79 300.20,212.77 299.09,211.74 296.34,209.53 293.58,207.32 287.80,202.80 282.01,198.28 272.36,191.64 262.71,185.00 251.53,176.83 240.34,168.66 228.92,159.58 217.50,150.51 208.94,142.73 200.37,134.95 194.52,128.90 188.67,122.85 183.01,117.40 177.36,111.95 169.42,105.18 161.49,98.41 150.87,90.53 140.25,82.65 127.45,73.59 114.66,64.54 100.71,56.02 86.77,47.51 72.87,39.62 58.97,31.74 47.23,25.35 35.48,18.97 26.12,14.07 16.76,9.18 10.98,6.43 5.19,3.68 2.30,2.56 -0.58,1.45 -0.74,1.35 -0.91,1.26 -1.04,1.14 -1.18,1.01 -1.29,0.85 -1.39,0.70 -1.45,0.52 -1.52,0.34 -1.54,0.15 -1.56,-0.02 -1.53,-0.21 -1.50,-0.40 -1.43,-0.57 -1.36,-0.75 -1.26,-0.90 -1.15,-1.05 -1.00,-1.17 -0.86,-1.30 -0.69,-1.38 -0.52,-1.47 -0.34,-1.51 -0.16,-1.55 0.02,-1.55 0.21,-1.54 0.39,-1.49 0.58,-1.45 0.58,-1.45 L 0.58,-1.45 Z"/></g><g transform="translate(603.2179487179487 298.7421875) rotate(0 -163.5 -90.5)" stroke="none"><path fill="#000000" d="M 0.63,1.42 Q 0.63,1.42 -1.96,2.54 -4.56,3.66 -12.27,7.28 -19.98,10.90 -34.20,17.33 -48.42,23.76 -67.73,30.82 -87.05,37.87 -113.75,42.90 -140.44,47.93 -167.61,50.92 -194.77,53.92 -216.70,54.32 -238.64,54.73 -253.51,52.59 -268.38,50.45 -276.58,46.88 -284.78,43.31 -289.57,36.74 -294.35,30.17 -298.38,18.97 -302.41,7.77 -306.68,-6.44 -310.95,-20.65 -314.79,-36.20 -318.62,-51.75 -321.41,-68.74 -324.19,-85.74 -323.65,-108.30 -323.12,-130.86 -320.86,-144.81 -318.60,-158.76 -310.67,-173.19 -302.74,-187.62 -290.07,-199.29 -277.41,-210.96 -262.74,-218.54 -248.07,-226.11 -233.13,-229.92 -218.19,-233.72 -205.15,-234.19 -192.11,-234.65 -182.16,-232.81 -172.21,-230.97 -164.98,-226.96 -157.74,-222.94 -151.70,-215.95 -145.66,-208.96 -140.20,-197.28 -134.74,-185.60 -129.84,-169.98 -124.94,-154.36 -121.41,-135.89 -117.89,-117.43 -115.53,-99.22 -113.17,-81.02 -111.88,-66.08 -110.59,-51.15 -110.33,-39.59 -110.07,-28.04 -110.82,-20.48 -111.58,-12.92 -112.48,-8.24 -113.38,-3.57 -114.22,0.11 -115.06,3.80 -115.16,4.03 -115.26,4.27 -115.44,4.45 -115.61,4.64 -115.83,4.76 -116.05,4.88 -116.30,4.93 -116.55,4.97 -116.81,4.93 -117.06,4.90 -117.28,4.78 -117.51,4.66 -117.69,4.48 -117.86,4.30 -117.97,4.07 -118.08,3.84 -118.11,3.59 -118.15,3.34 -118.09,3.09 -118.04,2.84 -117.92,2.62 -117.79,2.40 -117.60,2.23 -117.40,2.07 -117.17,1.97 -116.93,1.87 -116.68,1.85 -116.43,1.84 -116.18,1.90 -115.93,1.97 -115.72,2.11 -115.51,2.25 -115.35,2.45 -115.20,2.65 -115.11,2.89 -115.03,3.13 -115.02,3.38 -115.02,3.63 -115.10,3.88 -115.18,4.12 -115.33,4.32 -115.48,4.53 -115.69,4.67 -115.90,4.82 -116.14,4.89 -116.38,4.96 -116.64,4.95 -116.89,4.94 -117.13,4.85 -117.37,4.76 -117.56,4.60 -117.76,4.43 -117.89,4.22 -118.03,4.00 -118.09,3.75 -118.14,3.51 -118.12,3.25 -118.10,3.00 -118.10,3.00 -118.10,3.00 -117.03,-0.53 -115.96,-4.07 -115.08,-8.63 -114.19,-13.18 -113.44,-20.58 -112.69,-27.98 -112.95,-39.45 -113.21,-50.92 -114.49,-65.80 -115.78,-80.68 -118.12,-98.81 -120.47,-116.94 -123.96,-135.26 -127.45,-153.58 -132.28,-169.04 -137.12,-184.49 -142.40,-195.89 -147.67,-207.28 -153.37,-213.98 -159.06,-220.69 -165.90,-224.55 -172.74,-228.41 -182.38,-230.22 -192.03,-232.02 -204.79,-231.60 -217.56,-231.17 -232.22,-227.47 -246.88,-223.77 -261.26,-216.39 -275.65,-209.01 -288.06,-197.66 -300.47,-186.32 -308.25,-172.30 -316.02,-158.29 -318.25,-144.54 -320.49,-130.79 -321.04,-108.47 -321.59,-86.16 -318.83,-69.27 -316.06,-52.38 -312.25,-36.89 -308.43,-21.41 -304.17,-7.26 -299.92,6.88 -296.05,17.77 -292.19,28.66 -287.88,34.83 -283.56,41.00 -275.77,44.41 -267.98,47.82 -253.33,49.94 -238.68,52.05 -216.87,51.64 -195.06,51.23 -168.01,48.24 -140.95,45.25 -114.47,40.26 -87.99,35.28 -68.79,28.23 -49.58,21.19 -35.40,14.74 -21.21,8.29 -13.49,4.61 -5.78,0.93 -3.20,-0.24 -0.63,-1.42 -0.45,-1.48 -0.27,-1.53 -0.08,-1.54 0.10,-1.55 0.28,-1.52 0.47,-1.48 0.64,-1.41 0.81,-1.33 0.96,-1.21 1.10,-1.09 1.22,-0.95 1.34,-0.80 1.41,-0.62 1.49,-0.45 1.52,-0.27 1.55,-0.08 1.54,0.10 1.53,0.28 1.47,0.46 1.42,0.64 1.32,0.80 1.22,0.96 1.09,1.10 0.95,1.23 0.79,1.33 0.63,1.42 0.63,1.42 L 0.63,1.42 Z"/></g><g transform="translate(583.2179487179487 159.5) rotate(0 14.5 155.5)" stroke="none"><path fill="#000000" d="M 1.39,-0.69 Q 1.39,-0.69 2.80,2.19 4.21,5.08 5.99,11.32 7.78,17.56 9.67,26.25 11.56,34.93 13.51,45.82 15.46,56.70 16.58,68.85 17.70,81.00 18.46,95.65 19.21,110.30 19.82,127.74 20.43,145.18 21.55,163.79 22.67,182.39 23.72,200.08 24.76,217.77 25.78,234.48 26.80,251.20 27.81,264.62 28.82,278.04 29.25,286.93 29.68,295.82 29.86,300.17 30.04,304.52 30.18,306.36 30.31,308.21 30.29,308.44 30.26,308.67 30.16,308.88 30.06,309.08 29.90,309.25 29.73,309.42 29.53,309.52 29.32,309.63 29.09,309.66 28.86,309.70 28.63,309.66 28.41,309.62 28.20,309.51 28.00,309.40 27.84,309.23 27.68,309.06 27.59,308.84 27.49,308.63 27.47,308.40 27.45,308.17 27.50,307.94 27.55,307.72 27.68,307.52 27.80,307.32 27.98,307.18 28.16,307.03 28.37,306.94 28.59,306.86 28.82,306.85 29.05,306.84 29.28,306.91 29.50,306.97 29.69,307.10 29.88,307.24 30.02,307.42 30.16,307.61 30.23,307.83 30.30,308.05 30.30,308.28 30.29,308.51 30.22,308.73 30.14,308.95 30.00,309.14 29.85,309.32 29.66,309.45 29.47,309.57 29.24,309.63 29.02,309.69 28.79,309.68 28.55,309.66 28.34,309.57 28.13,309.48 27.95,309.33 27.78,309.18 27.66,308.98 27.54,308.78 27.49,308.55 27.45,308.33 27.45,308.33 27.45,308.33 27.43,306.48 27.41,304.63 27.23,300.29 27.04,295.95 26.61,287.09 26.19,278.24 25.17,264.80 24.16,251.36 23.14,234.64 22.11,217.93 21.06,200.24 20.01,182.55 18.88,163.91 17.75,145.28 17.14,127.86 16.52,110.45 15.75,95.85 14.98,81.25 13.86,69.22 12.74,57.19 10.78,46.36 8.81,35.53 6.91,26.95 5.00,18.36 3.27,12.39 1.53,6.41 0.06,3.55 -1.39,0.69 -1.46,0.52 -1.52,0.34 -1.54,0.15 -1.56,-0.03 -1.53,-0.21 -1.50,-0.40 -1.43,-0.57 -1.36,-0.75 -1.25,-0.90 -1.14,-1.05 -1.00,-1.18 -0.86,-1.30 -0.69,-1.38 -0.52,-1.47 -0.34,-1.51 -0.15,-1.55 0.03,-1.55 0.21,-1.54 0.40,-1.49 0.58,-1.44 0.74,-1.35 0.91,-1.26 1.05,-1.14 1.18,-1.01 1.29,-0.85 1.39,-0.69 1.39,-0.69 L 1.39,-0.69 Z"/></g><g transform="translate(105.21794871794867 180.5) rotate(0 0.00004999999998744897 0.00005000000000165983)" stroke="none"><path fill="#000000" d="M 1.57,-1.57 Q 1.57,-1.57 1.77,-1.27 1.98,-0.98 2.09,-0.64 2.20,-0.29 2.19,0.05 2.18,0.41 2.05,0.75 1.93,1.09 1.70,1.37 1.48,1.65 1.18,1.84 0.87,2.04 0.52,2.12 0.18,2.21 -0.17,2.18 -0.53,2.15 -0.86,2.01 -1.19,1.87 -1.46,1.63 -1.73,1.39 -1.90,1.07 -2.08,0.76 -2.15,0.41 -2.21,0.05 -2.17,-0.29 -2.12,-0.65 -1.96,-0.97 -1.80,-1.29 -1.54,-1.54 -1.29,-1.80 -0.97,-1.96 -0.65,-2.12 -0.29,-2.17 0.06,-2.21 0.41,-2.15 0.76,-2.08 1.07,-1.90 1.39,-1.73 1.63,-1.46 1.87,-1.19 2.01,-0.86 2.15,-0.53 2.18,-0.17 2.21,0.18 2.12,0.52 2.03,0.87 1.84,1.18 1.65,1.48 1.37,1.70 1.09,1.93 0.75,2.05 0.41,2.18 0.05,2.19 -0.30,2.20 -0.64,2.09 -0.98,1.98 -1.27,1.77 -1.57,1.56 -1.57,1.57 -1.57,1.57 -1.73,1.35 -1.90,1.14 -2.01,0.90 -2.12,0.66 -2.16,0.39 -2.21,0.13 -2.20,-0.13 -2.18,-0.40 -2.10,-0.65 -2.02,-0.91 -1.88,-1.14 -1.74,-1.36 -1.55,-1.55 -1.36,-1.74 -1.14,-1.88 -0.91,-2.02 -0.65,-2.10 -0.40,-2.18 -0.13,-2.20 0.13,-2.21 0.39,-2.16 0.66,-2.12 0.90,-2.01 1.14,-1.90 1.35,-1.73 1.57,-1.57 1.57,-1.57 L 1.57,-1.57 Z"/></g><g transform="translate(105.21794871794867 180.5) rotate(0 83 20.75)" stroke="none"><path fill="#000000" d="M 0.58,-1.59 Q 0.58,-1.59 6.03,0.46 11.47,2.52 20.91,5.27 30.36,8.01 43.57,11.34 56.78,14.68 73.17,18.55 89.56,22.42 104.44,25.94 119.32,29.46 131.09,32.11 142.87,34.76 149.47,36.32 156.06,37.88 160.28,38.70 164.49,39.52 164.73,39.62 164.97,39.72 165.17,39.88 165.36,40.05 165.50,40.27 165.63,40.50 165.68,40.75 165.74,41.00 165.71,41.26 165.68,41.51 165.57,41.75 165.46,41.98 165.28,42.17 165.11,42.35 164.88,42.47 164.65,42.59 164.39,42.63 164.14,42.68 163.88,42.63 163.63,42.59 163.40,42.47 163.17,42.35 163.00,42.16 162.82,41.97 162.71,41.74 162.61,41.50 162.58,41.24 162.55,40.99 162.61,40.74 162.67,40.48 162.80,40.26 162.93,40.04 163.13,39.88 163.33,39.71 163.57,39.62 163.81,39.52 164.07,39.51 164.32,39.50 164.57,39.57 164.82,39.64 165.03,39.78 165.25,39.93 165.40,40.13 165.56,40.34 165.64,40.58 165.72,40.83 165.72,41.09 165.72,41.34 165.63,41.59 165.55,41.83 165.39,42.04 165.24,42.24 165.02,42.39 164.81,42.53 164.56,42.60 164.31,42.67 164.05,42.65 163.80,42.64 163.80,42.64 163.80,42.64 159.62,41.58 155.44,40.52 148.86,38.97 142.27,37.43 130.48,34.80 118.68,32.17 103.80,28.68 88.91,25.18 72.49,21.35 56.07,17.51 42.79,14.22 29.52,10.93 19.94,8.22 10.37,5.52 4.89,3.55 -0.58,1.59 -0.76,1.50 -0.95,1.40 -1.10,1.27 -1.26,1.13 -1.37,0.97 -1.49,0.80 -1.57,0.61 -1.64,0.42 -1.67,0.21 -1.69,0.01 -1.67,-0.18 -1.65,-0.39 -1.58,-0.58 -1.51,-0.77 -1.39,-0.94 -1.28,-1.11 -1.13,-1.25 -0.97,-1.38 -0.79,-1.48 -0.61,-1.58 -0.41,-1.63 -0.22,-1.68 -0.01,-1.68 0.18,-1.68 0.38,-1.64 0.58,-1.59 0.58,-1.59 L 0.58,-1.59 Z"/></g><g transform="translate(147.21794871794867 10) rotate(0 0.00004999999998744897 0.00004999999998744897)" stroke="none"><path fill="#000000" d="M 1.57,-1.57 Q 1.57,-1.57 1.77,-1.27 1.98,-0.98 2.09,-0.64 2.20,-0.29 2.19,0.05 2.18,0.41 2.05,0.75 1.93,1.09 1.70,1.37 1.48,1.65 1.18,1.84 0.87,2.04 0.52,2.12 0.18,2.21 -0.17,2.18 -0.53,2.15 -0.86,2.01 -1.19,1.87 -1.46,1.63 -1.73,1.39 -1.90,1.07 -2.08,0.76 -2.15,0.41 -2.21,0.05 -2.17,-0.29 -2.12,-0.65 -1.96,-0.97 -1.80,-1.29 -1.54,-1.54 -1.29,-1.80 -0.97,-1.96 -0.65,-2.12 -0.29,-2.17 0.06,-2.21 0.41,-2.15 0.76,-2.08 1.07,-1.90 1.39,-1.73 1.63,-1.46 1.87,-1.19 2.01,-0.86 2.15,-0.53 2.18,-0.17 2.21,0.18 2.12,0.52 2.03,0.87 1.84,1.18 1.65,1.48 1.37,1.70 1.09,1.93 0.75,2.05 0.41,2.18 0.05,2.19 -0.30,2.20 -0.64,2.09 -0.98,1.98 -1.27,1.77 -1.57,1.56 -1.57,1.57 -1.57,1.57 -1.73,1.35 -1.90,1.14 -2.01,0.90 -2.12,0.66 -2.16,0.39 -2.21,0.13 -2.20,-0.13 -2.18,-0.40 -2.10,-0.65 -2.02,-0.91 -1.88,-1.14 -1.74,-1.36 -1.55,-1.55 -1.36,-1.74 -1.14,-1.88 -0.91,-2.02 -0.65,-2.10 -0.40,-2.18 -0.13,-2.20 0.13,-2.21 0.39,-2.16 0.66,-2.12 0.90,-2.01 1.14,-1.90 1.35,-1.73 1.57,-1.57 1.57,-1.57 L 1.57,-1.57 Z"/></g><g transform="translate(592.7179487179487 253) rotate(0 0.00005000000000165983 0.00005000000000165983)" stroke="none"><path fill="#000000" d="M 1.57,-1.57 Q 1.57,-1.57 1.77,-1.27 1.98,-0.98 2.09,-0.64 2.20,-0.29 2.19,0.05 2.18,0.41 2.05,0.75 1.93,1.09 1.70,1.37 1.48,1.65 1.18,1.84 0.87,2.04 0.52,2.12 0.18,2.21 -0.17,2.18 -0.53,2.15 -0.86,2.01 -1.19,1.87 -1.46,1.63 -1.73,1.39 -1.90,1.07 -2.08,0.76 -2.15,0.41 -2.21,0.05 -2.17,-0.29 -2.12,-0.65 -1.96,-0.97 -1.80,-1.29 -1.54,-1.54 -1.29,-1.80 -0.97,-1.96 -0.65,-2.12 -0.29,-2.17 0.06,-2.21 0.41,-2.15 0.76,-2.08 1.07,-1.90 1.39,-1.73 1.63,-1.46 1.87,-1.19 2.01,-0.86 2.15,-0.53 2.18,-0.17 2.21,0.18 2.12,0.52 2.03,0.87 1.84,1.18 1.65,1.48 1.37,1.70 1.09,1.93 0.75,2.05 0.41,2.18 0.05,2.19 -0.30,2.20 -0.64,2.09 -0.98,1.98 -1.27,1.77 -1.57,1.56 -1.57,1.57 -1.57,1.57 -1.73,1.35 -1.90,1.14 -2.01,0.90 -2.12,0.66 -2.16,0.39 -2.21,0.13 -2.20,-0.13 -2.18,-0.40 -2.10,-0.65 -2.02,-0.91 -1.88,-1.14 -1.74,-1.36 -1.55,-1.55 -1.36,-1.74 -1.14,-1.88 -0.91,-2.02 -0.65,-2.10 -0.40,-2.18 -0.13,-2.20 0.13,-2.21 0.39,-2.16 0.66,-2.12 0.90,-2.01 1.14,-1.90 1.35,-1.73 1.57,-1.57 1.57,-1.57 L 1.57,-1.57 Z"/></g><g transform="translate(10 178.0745192307692) rotate(0 40.769230769230774 -28.205128205128204)" stroke="none"><path fill="#000000" d="M -1.57,-1.10 Q -1.57,-1.10 0.55,-4.00 2.68,-6.90 5.03,-11.27 7.37,-15.65 10.17,-21.49 12.96,-27.33 15.18,-32.73 17.40,-38.13 19.09,-42.77 20.78,-47.41 21.80,-50.41 22.82,-53.41 23.15,-54.98 23.49,-56.54 23.72,-57.23 23.95,-57.93 24.03,-58.13 24.11,-58.33 24.24,-58.50 24.36,-58.67 24.52,-58.81 24.69,-58.95 24.88,-59.04 25.07,-59.14 25.28,-59.19 25.49,-59.23 25.70,-59.23 25.92,-59.22 26.12,-59.17 26.33,-59.11 26.52,-59.01 26.70,-58.90 26.86,-58.76 27.02,-58.61 27.14,-58.43 27.25,-58.25 27.32,-58.05 27.39,-57.85 27.42,-57.64 27.44,-57.42 27.41,-57.21 27.38,-57.00 29.47,-54.36 31.57,-51.71 32.80,-46.62 34.04,-41.53 35.28,-35.41 36.51,-29.29 37.62,-23.45 38.72,-17.60 39.91,-12.50 41.11,-7.39 42.04,-4.22 42.98,-1.04 43.71,0.33 44.45,1.71 45.34,1.08 46.23,0.45 47.94,-2.06 49.64,-4.58 51.60,-8.43 53.55,-12.29 55.58,-17.15 57.61,-22.02 59.67,-27.33 61.73,-32.64 63.65,-37.98 65.56,-43.32 66.97,-47.78 68.37,-52.24 69.28,-54.76 70.19,-57.28 70.46,-58.53 70.73,-59.78 70.81,-59.95 70.90,-60.13 71.03,-60.28 71.15,-60.43 71.31,-60.54 71.47,-60.66 71.65,-60.73 71.84,-60.80 72.03,-60.83 72.22,-60.86 72.42,-60.84 72.61,-60.82 72.80,-60.75 72.98,-60.69 73.15,-60.58 73.31,-60.47 73.44,-60.33 73.58,-60.18 73.67,-60.01 73.76,-59.84 73.82,-59.65 73.87,-59.46 73.87,-59.27 73.87,-59.07 73.83,-58.88 73.79,-58.69 74.11,-56.71 74.43,-54.73 74.80,-50.83 75.17,-46.93 75.91,-41.01 76.65,-35.09 77.11,-31.09 77.57,-27.09 78.20,-23.05 78.84,-19.02 79.40,-15.68 79.96,-12.34 80.49,-10.08 81.01,-7.81 81.91,-6.06 82.81,-4.31 82.82,-4.15 82.84,-3.99 82.82,-3.82 82.80,-3.66 82.74,-3.51 82.68,-3.35 82.58,-3.22 82.49,-3.09 82.36,-2.98 82.24,-2.87 82.09,-2.80 81.94,-2.72 81.78,-2.68 81.62,-2.65 81.46,-2.65 81.29,-2.65 81.13,-2.69 80.98,-2.74 80.83,-2.81 80.69,-2.89 80.56,-3.00 80.44,-3.11 80.35,-3.25 80.26,-3.39 80.20,-3.54 80.15,-3.70 80.38,-4.38 80.60,-5.05 80.79,-5.17 80.99,-5.28 81.20,-5.32 81.42,-5.37 81.64,-5.34 81.86,-5.32 82.06,-5.22 82.25,-5.13 82.41,-4.97 82.57,-4.82 82.67,-4.62 82.77,-4.43 82.81,-4.21 82.84,-3.99 82.80,-3.77 82.76,-3.55 82.66,-3.36 82.55,-3.17 82.39,-3.02 82.23,-2.87 82.03,-2.78 81.83,-2.69 81.61,-2.66 81.39,-2.64 81.17,-2.69 80.96,-2.74 80.77,-2.86 80.58,-2.97 80.44,-3.14 80.30,-3.31 80.22,-3.52 80.14,-3.73 80.13,-3.95 80.12,-4.17 80.18,-4.38 80.24,-4.59 80.37,-4.77 80.50,-4.95 80.67,-5.09 80.85,-5.22 81.06,-5.29 81.27,-5.35 81.49,-5.35 81.71,-5.35 81.92,-5.28 82.13,-5.20 82.30,-5.07 82.48,-4.93 82.60,-4.75 82.72,-4.56 82.78,-4.35 82.83,-4.14 82.82,-3.92 82.81,-3.70 82.72,-3.49 82.64,-3.29 82.72,-3.80 82.81,-4.31 82.82,-4.15 82.84,-3.99 82.82,-3.82 82.80,-3.66 82.74,-3.51 82.68,-3.35 82.58,-3.22 82.49,-3.09 82.36,-2.98 82.24,-2.87 82.09,-2.80 81.94,-2.72 81.78,-2.68 81.62,-2.65 81.46,-2.65 81.29,-2.65 81.13,-2.69 80.98,-2.74 80.83,-2.81 80.69,-2.89 80.56,-3.00 80.44,-3.11 80.35,-3.25 80.26,-3.39 80.20,-3.54 80.15,-3.70 79.28,-5.45 78.42,-7.21 77.87,-9.55 77.33,-11.90 76.75,-15.25 76.18,-18.60 75.53,-22.69 74.88,-26.77 74.40,-30.76 73.93,-34.75 73.16,-40.70 72.39,-46.65 71.99,-50.55 71.59,-54.46 71.16,-57.12 70.73,-59.78 70.81,-59.95 70.90,-60.13 71.03,-60.28 71.15,-60.43 71.31,-60.54 71.47,-60.66 71.65,-60.73 71.84,-60.80 72.03,-60.83 72.22,-60.86 72.42,-60.84 72.61,-60.82 72.80,-60.75 72.98,-60.69 73.15,-60.58 73.31,-60.47 73.44,-60.33 73.58,-60.18 73.67,-60.01 73.76,-59.84 73.82,-59.65 73.87,-59.46 73.87,-59.27 73.87,-59.07 73.83,-58.88 73.79,-58.69 73.30,-57.52 72.81,-56.35 71.95,-53.87 71.08,-51.40 69.70,-46.87 68.31,-42.35 66.44,-36.95 64.56,-31.56 62.56,-26.19 60.55,-20.82 58.57,-15.81 56.59,-10.80 54.65,-6.70 52.71,-2.59 50.81,0.43 48.92,3.46 47.27,4.53 45.61,5.61 44.36,5.28 43.11,4.95 42.39,3.99 41.67,3.04 41.00,1.39 40.33,-0.24 39.35,-3.49 38.37,-6.74 37.13,-11.90 35.89,-17.05 34.74,-22.87 33.59,-28.68 32.30,-34.73 31.01,-40.77 29.78,-45.57 28.55,-50.37 27.61,-52.62 26.68,-54.88 25.31,-56.40 23.95,-57.93 24.03,-58.13 24.11,-58.33 24.24,-58.50 24.36,-58.67 24.52,-58.81 24.69,-58.95 24.88,-59.04 25.07,-59.14 25.28,-59.19 25.49,-59.23 25.70,-59.23 25.92,-59.22 26.12,-59.17 26.33,-59.11 26.52,-59.01 26.70,-58.90 26.86,-58.76 27.02,-58.61 27.13,-58.43 27.25,-58.25 27.32,-58.05 27.39,-57.85 27.42,-57.64 27.44,-57.42 27.41,-57.21 27.38,-57.00 26.95,-56.35 26.51,-55.71 26.00,-54.12 25.48,-52.52 24.48,-49.48 23.49,-46.44 21.82,-41.73 20.16,-37.02 17.96,-31.51 15.77,-26.01 13.02,-20.07 10.28,-14.13 7.92,-9.51 5.57,-4.88 3.57,-1.89 1.57,1.10 1.42,1.27 1.26,1.44 1.07,1.57 0.88,1.70 0.66,1.79 0.44,1.87 0.21,1.89 -0.01,1.92 -0.24,1.89 -0.47,1.86 -0.68,1.78 -0.90,1.69 -1.09,1.56 -1.28,1.43 -1.43,1.25 -1.59,1.08 -1.69,0.87 -1.80,0.67 -1.85,0.44 -1.91,0.21 -1.90,-0.01 -1.90,-0.24 -1.85,-0.46 -1.79,-0.69 -1.68,-0.89 -1.57,-1.10 -1.57,-1.10 L -1.57,-1.10 Z"/></g><g transform="translate(113.58974358974359 172.94631410256406) rotate(0 13.846153846153811 -38.20512820512819)" stroke="none"><path fill="#000000" d="M -1.53,-0.97 Q -1.53,-0.97 -0.48,-2.58 0.55,-4.20 2.62,-8.44 4.68,-12.69 7.80,-19.96 10.91,-27.23 13.71,-35.72 16.51,-44.21 18.59,-51.64 20.67,-59.08 21.86,-63.99 23.04,-68.91 23.71,-71.19 24.38,-73.46 24.54,-74.30 24.70,-75.15 24.77,-75.33 24.85,-75.51 24.97,-75.66 25.08,-75.82 25.23,-75.94 25.39,-76.07 25.56,-76.15 25.74,-76.24 25.93,-76.28 26.12,-76.31 26.32,-76.31 26.51,-76.30 26.70,-76.25 26.89,-76.19 27.06,-76.09 27.23,-76.00 27.37,-75.86 27.51,-75.73 27.62,-75.56 27.72,-75.40 27.78,-75.21 27.85,-75.03 27.86,-74.83 27.88,-74.64 27.85,-74.44 27.82,-74.25 27.79,-72.88 27.76,-71.52 27.71,-68.80 27.67,-66.08 27.78,-63.04 27.90,-60.00 28.09,-56.63 28.28,-53.27 28.50,-49.93 28.72,-46.58 28.96,-42.80 29.20,-39.01 29.30,-35.02 29.39,-31.02 29.43,-27.12 29.47,-23.21 29.49,-19.63 29.50,-16.05 29.51,-13.50 29.52,-10.95 29.62,-8.98 29.73,-7.02 29.69,-6.77 29.65,-6.53 29.54,-6.31 29.42,-6.09 29.24,-5.92 29.06,-5.75 28.84,-5.64 28.61,-5.54 28.37,-5.51 28.12,-5.48 27.88,-5.54 27.63,-5.59 27.42,-5.72 27.21,-5.84 27.05,-6.03 26.89,-6.22 26.79,-6.45 26.70,-6.68 26.69,-6.93 26.67,-7.18 26.74,-7.42 26.80,-7.66 26.94,-7.86 27.08,-8.07 27.28,-8.22 27.48,-8.37 27.71,-8.45 27.95,-8.53 28.19,-8.53 28.44,-8.53 28.68,-8.45 28.91,-8.37 29.11,-8.22 29.31,-8.07 29.45,-7.87 29.59,-7.66 29.66,-7.42 29.72,-7.18 29.71,-6.94 29.70,-6.69 29.61,-6.46 29.51,-6.23 29.35,-6.04 29.19,-5.85 28.98,-5.72 28.77,-5.59 28.53,-5.54 28.28,-5.48 28.04,-5.51 27.79,-5.54 27.57,-5.64 27.34,-5.74 27.16,-5.91 26.98,-6.08 26.86,-6.30 26.75,-6.52 26.71,-6.77 26.66,-7.01 26.66,-7.01 26.66,-7.01 26.76,-8.98 26.86,-10.94 26.85,-13.49 26.84,-16.04 26.82,-19.61 26.79,-23.18 26.74,-27.06 26.69,-30.95 26.58,-34.89 26.47,-38.83 26.22,-42.61 25.96,-46.39 25.71,-49.74 25.46,-53.10 25.23,-56.48 25.01,-59.86 24.84,-62.98 24.67,-66.09 24.65,-68.84 24.63,-71.58 24.66,-73.36 24.70,-75.15 24.77,-75.33 24.85,-75.51 24.97,-75.66 25.08,-75.82 25.23,-75.94 25.39,-76.07 25.56,-76.15 25.74,-76.24 25.93,-76.28 26.12,-76.31 26.32,-76.31 26.51,-76.30 26.70,-76.25 26.89,-76.19 27.06,-76.09 27.23,-76.00 27.37,-75.86 27.51,-75.73 27.62,-75.56 27.72,-75.40 27.78,-75.21 27.85,-75.03 27.86,-74.83 27.88,-74.64 27.85,-74.44 27.82,-74.25 27.43,-73.47 27.04,-72.70 26.41,-70.48 25.78,-68.26 24.62,-63.28 23.46,-58.31 21.40,-50.79 19.35,-43.28 16.57,-34.65 13.80,-26.01 10.74,-18.65 7.68,-11.28 5.62,-6.78 3.57,-2.28 2.55,-0.65 1.53,0.97 1.39,1.14 1.25,1.31 1.08,1.44 0.90,1.58 0.70,1.66 0.50,1.75 0.28,1.78 0.06,1.82 -0.15,1.80 -0.36,1.78 -0.57,1.71 -0.78,1.64 -0.97,1.52 -1.15,1.40 -1.30,1.24 -1.45,1.09 -1.56,0.89 -1.67,0.70 -1.73,0.49 -1.79,0.28 -1.80,0.06 -1.81,-0.15 -1.77,-0.36 -1.72,-0.58 -1.63,-0.78 -1.53,-0.97 -1.53,-0.97 L -1.53,-0.97 Z"/></g><g transform="translate(131.5384615384615 140.63862179487177) rotate(0 11.02564102564105 -0.7692307692307594)" stroke="none"><path fill="#000000" d="M 0.34,-2.18 Q 0.34,-2.18 3.12,-1.62 5.91,-1.06 8.33,-0.80 10.76,-0.53 12.71,-0.68 14.66,-0.83 16.18,-1.24 17.69,-1.66 18.88,-2.56 20.07,-3.47 20.22,-3.76 20.36,-4.05 20.60,-4.28 20.83,-4.51 21.12,-4.65 21.41,-4.79 21.73,-4.83 22.05,-4.87 22.37,-4.81 22.69,-4.74 22.97,-4.58 23.25,-4.42 23.47,-4.18 23.68,-3.93 23.81,-3.63 23.93,-3.33 23.96,-3.01 23.98,-2.69 23.90,-2.37 23.82,-2.06 23.64,-1.79 23.46,-1.52 23.21,-1.32 22.95,-1.11 22.65,-1.01 22.34,-0.90 22.02,-0.89 21.69,-0.88 21.38,-0.98 21.07,-1.08 20.81,-1.27 20.55,-1.46 20.36,-1.73 20.18,-1.99 20.09,-2.31 19.99,-2.62 20.00,-2.94 20.02,-3.26 20.13,-3.57 20.25,-3.87 20.45,-4.12 20.66,-4.37 20.93,-4.55 21.21,-4.72 21.52,-4.79 21.84,-4.87 22.16,-4.84 22.48,-4.81 22.78,-4.68 23.08,-4.55 23.32,-4.33 23.56,-4.11 23.71,-3.83 23.87,-3.54 23.93,-3.22 23.99,-2.90 23.94,-2.58 23.89,-2.26 23.89,-2.26 23.89,-2.26 22.28,-0.48 20.66,1.29 19.58,1.53 18.50,1.77 16.76,2.13 15.01,2.49 12.76,2.77 10.50,3.05 7.90,2.94 5.29,2.83 2.47,2.51 -0.34,2.18 -0.60,2.11 -0.85,2.04 -1.09,1.90 -1.32,1.77 -1.51,1.59 -1.70,1.40 -1.85,1.18 -1.99,0.95 -2.08,0.70 -2.16,0.45 -2.19,0.18 -2.21,-0.07 -2.17,-0.34 -2.12,-0.60 -2.02,-0.85 -1.92,-1.09 -1.76,-1.31 -1.60,-1.52 -1.39,-1.69 -1.19,-1.86 -0.95,-1.98 -0.71,-2.09 -0.44,-2.15 -0.18,-2.20 0.07,-2.19 0.34,-2.18 0.34,-2.18 L 0.34,-2.18 Z"/></g><g transform="translate(163.33333333333331 112.43349358974356) rotate(0 22.820512820512818 1.2820512820512846)" stroke="none"><path fill="#000000" d="M 0,-1.84 Q 0,-1.84 2.06,-1.78 4.12,-1.73 6.48,-1.67 8.83,-1.61 11.96,-1.27 15.10,-0.93 18.77,-0.48 22.44,-0.03 26.16,0.16 29.88,0.35 33.12,0.59 36.35,0.83 38.73,0.94 41.11,1.04 43.19,1.05 45.27,1.06 45.51,1.10 45.74,1.15 45.95,1.27 46.16,1.39 46.32,1.57 46.49,1.75 46.58,1.97 46.68,2.19 46.70,2.43 46.72,2.67 46.66,2.90 46.60,3.14 46.47,3.34 46.34,3.54 46.15,3.69 45.96,3.84 45.74,3.93 45.51,4.01 45.27,4.02 45.03,4.02 44.80,3.95 44.57,3.88 44.37,3.74 44.18,3.60 44.04,3.41 43.90,3.21 43.83,2.98 43.76,2.75 43.76,2.51 43.77,2.27 43.85,2.04 43.93,1.82 44.09,1.63 44.24,1.44 44.44,1.31 44.64,1.18 44.88,1.12 45.11,1.06 45.35,1.08 45.59,1.10 45.81,1.20 46.03,1.29 46.21,1.45 46.39,1.62 46.51,1.82 46.63,2.03 46.67,2.27 46.72,2.51 46.69,2.75 46.66,2.99 46.55,3.20 46.44,3.42 46.27,3.59 46.10,3.76 45.88,3.86 45.67,3.97 45.43,4.00 45.19,4.04 45.19,4.04 45.19,4.04 43.10,3.91 41.01,3.79 38.58,3.71 36.16,3.62 32.95,3.42 29.74,3.21 25.93,3.05 22.11,2.89 18.46,2.50 14.81,2.11 11.82,1.86 8.83,1.61 6.47,1.67 4.12,1.73 2.06,1.78 0,1.84 -0.22,1.81 -0.44,1.78 -0.64,1.70 -0.85,1.63 -1.03,1.50 -1.22,1.37 -1.36,1.21 -1.51,1.04 -1.61,0.84 -1.72,0.65 -1.77,0.43 -1.82,0.22 -1.82,-0.00 -1.82,-0.22 -1.77,-0.43 -1.72,-0.65 -1.61,-0.84 -1.51,-1.04 -1.36,-1.21 -1.22,-1.37 -1.03,-1.50 -0.85,-1.63 -0.64,-1.70 -0.44,-1.78 -0.22,-1.81 0.00,-1.84 0.00,-1.84 L 0,-1.84 Z"/></g><g transform="translate(183.33333333333331 122.17708333333331) rotate(0 -0.2564102564102484 16.92307692307692)" stroke="none"><path fill="#000000" d="M 2.18,0.58 Q 2.18,0.58 1.47,2.75 0.76,4.93 0.44,6.90 0.12,8.87 -0.02,10.89 -0.18,12.90 -0.06,14.58 0.06,16.25 0.32,17.51 0.58,18.77 1.18,20.26 1.77,21.75 2.06,24.03 2.36,26.31 2.40,27.59 2.45,28.87 3.13,30.79 3.81,32.70 3.89,33.10 3.96,33.50 3.91,33.91 3.86,34.32 3.68,34.68 3.50,35.05 3.21,35.34 2.92,35.63 2.55,35.81 2.19,36.00 1.78,36.05 1.38,36.11 0.98,36.03 0.57,35.96 0.22,35.76 -0.13,35.56 -0.40,35.25 -0.68,34.95 -0.84,34.58 -1.00,34.20 -1.04,33.79 -1.07,33.39 -0.98,32.99 -0.88,32.59 -0.66,32.25 -0.44,31.90 -0.12,31.64 0.19,31.39 0.57,31.24 0.95,31.10 1.36,31.09 1.77,31.08 2.16,31.19 2.55,31.31 2.89,31.55 3.22,31.79 3.46,32.12 3.70,32.45 3.82,32.84 3.94,33.23 3.93,33.64 3.92,34.05 3.78,34.43 3.64,34.82 3.39,35.14 3.13,35.46 2.79,35.68 2.44,35.90 2.05,36.00 1.65,36.10 1.24,36.07 0.84,36.04 0.46,35.88 0.08,35.72 -0.21,35.44 -0.52,35.17 -0.72,34.82 -0.92,34.46 -0.92,34.46 -0.92,34.46 -1.71,31.70 -2.50,28.95 -2.50,27.72 -2.49,26.49 -2.49,24.76 -2.49,23.03 -2.84,21.17 -3.20,19.31 -3.32,17.88 -3.44,16.46 -3.52,14.59 -3.59,12.73 -3.54,10.59 -3.49,8.44 -3.30,6.17 -3.12,3.90 -2.65,1.66 -2.18,-0.58 -2.07,-0.83 -1.97,-1.08 -1.81,-1.30 -1.66,-1.52 -1.45,-1.70 -1.24,-1.88 -1.00,-2.00 -0.76,-2.12 -0.49,-2.18 -0.22,-2.24 0.04,-2.24 0.31,-2.23 0.57,-2.16 0.84,-2.09 1.07,-1.96 1.31,-1.83 1.51,-1.64 1.71,-1.46 1.86,-1.23 2.01,-1.01 2.11,-0.75 2.20,-0.49 2.22,-0.22 2.25,0.04 2.21,0.31 2.18,0.58 2.18,0.58 L 2.18,0.58 Z"/></g><g transform="translate(214.61538461538458 123.71554487179486) rotate(0 -3.8461538461538396 24.102564102564088)" stroke="none"><path fill="#000000" d="M 1.81,0 Q 1.81,0 1.86,1.47 1.92,2.94 1.84,5.19 1.76,7.44 1.70,10.17 1.64,12.89 0.99,16.82 0.35,20.75 -0.67,25.36 -1.70,29.97 -2.58,33.97 -3.47,37.97 -4.15,40.85 -4.83,43.74 -5.06,44.25 -5.28,44.75 -5.34,44.92 -5.41,45.09 -5.51,45.24 -5.61,45.39 -5.74,45.51 -5.87,45.64 -6.03,45.72 -6.19,45.81 -6.37,45.86 -6.54,45.90 -6.72,45.91 -6.90,45.91 -7.08,45.87 -7.25,45.83 -7.42,45.75 -7.58,45.66 -7.71,45.55 -7.85,45.43 -7.96,45.28 -8.06,45.13 -8.13,44.97 -8.20,44.80 -8.22,44.62 -8.24,44.44 -8.23,44.26 -8.21,44.08 -8.10,43.84 -8.00,43.59 -7.83,43.42 -7.67,43.24 -7.46,43.12 -7.25,43.00 -7.01,42.96 -6.77,42.92 -6.53,42.95 -6.29,42.99 -6.07,43.10 -5.86,43.21 -5.69,43.38 -5.52,43.56 -5.41,43.77 -5.31,43.99 -5.28,44.23 -5.25,44.48 -5.30,44.71 -5.34,44.95 -5.47,45.16 -5.59,45.37 -5.77,45.53 -5.95,45.69 -6.18,45.78 -6.40,45.88 -6.64,45.89 -6.88,45.91 -7.12,45.85 -7.35,45.79 -7.56,45.65 -7.76,45.52 -7.91,45.33 -8.06,45.14 -8.14,44.91 -8.22,44.68 -8.22,44.44 -8.23,44.20 -8.15,43.97 -8.08,43.73 -7.94,43.54 -7.79,43.34 -7.59,43.20 -7.40,43.07 -7.16,43.00 -6.93,42.93 -6.69,42.94 -6.44,42.95 -6.22,43.03 -5.99,43.12 -5.80,43.27 -5.62,43.43 -5.49,43.63 -5.36,43.84 -5.30,44.08 -5.25,44.31 -5.27,44.55 -5.29,44.80 -5.29,44.77 -5.28,44.75 -5.34,44.92 -5.41,45.09 -5.51,45.24 -5.61,45.39 -5.74,45.51 -5.87,45.64 -6.03,45.72 -6.19,45.81 -6.37,45.86 -6.54,45.90 -6.72,45.91 -6.90,45.91 -7.08,45.87 -7.25,45.83 -7.42,45.75 -7.58,45.66 -7.71,45.55 -7.85,45.43 -7.96,45.28 -8.06,45.13 -8.13,44.97 -8.20,44.80 -8.22,44.62 -8.24,44.44 -8.23,44.26 -8.21,44.08 -7.89,43.60 -7.57,43.11 -6.92,40.24 -6.28,37.36 -5.44,33.35 -4.60,29.34 -3.66,24.81 -2.71,20.28 -2.17,16.58 -1.64,12.89 -1.70,10.16 -1.76,7.44 -1.84,5.19 -1.92,2.94 -1.86,1.47 -1.81,0 -1.78,-0.21 -1.75,-0.43 -1.68,-0.63 -1.60,-0.84 -1.47,-1.02 -1.35,-1.20 -1.19,-1.34 -1.02,-1.49 -0.83,-1.59 -0.64,-1.69 -0.43,-1.74 -0.21,-1.79 0.00,-1.79 0.21,-1.79 0.43,-1.74 0.64,-1.69 0.83,-1.59 1.02,-1.48 1.19,-1.34 1.35,-1.20 1.47,-1.02 1.60,-0.84 1.68,-0.63 1.75,-0.43 1.78,-0.21 1.81,0.00 1.81,0.00 L 1.81,0 Z"/></g><g transform="translate(216.15384615384613 146.2796474358974) rotate(0 7.948717948717956 -3.8461538461538396)" stroke="none"><path fill="#000000" d="M 0.67,-2.26 Q 0.67,-2.26 2.14,-1.81 3.61,-1.37 4.94,-1.22 6.26,-1.07 7.81,-0.96 9.36,-0.86 10.51,-1.95 11.66,-3.04 12.01,-4.16 12.35,-5.29 12.81,-7.16 13.27,-9.03 13.44,-9.39 13.60,-9.76 13.88,-10.05 14.15,-10.34 14.51,-10.53 14.86,-10.71 15.26,-10.78 15.65,-10.84 16.05,-10.78 16.44,-10.71 16.80,-10.53 17.15,-10.34 17.43,-10.05 17.70,-9.76 17.87,-9.39 18.04,-9.03 18.08,-8.63 18.13,-8.23 18.04,-7.84 17.96,-7.45 17.75,-7.11 17.54,-6.76 17.24,-6.51 16.93,-6.25 16.56,-6.10 16.19,-5.95 15.79,-5.93 15.39,-5.91 15.00,-6.01 14.62,-6.12 14.28,-6.34 13.95,-6.57 13.71,-6.89 13.47,-7.21 13.34,-7.59 13.21,-7.97 13.21,-8.37 13.21,-8.77 13.34,-9.15 13.47,-9.53 13.71,-9.84 13.95,-10.16 14.28,-10.39 14.61,-10.61 15.00,-10.72 15.39,-10.83 15.79,-10.81 16.19,-10.79 16.56,-10.64 16.93,-10.49 17.24,-10.23 17.54,-9.97 17.75,-9.63 17.95,-9.28 18.04,-8.89 18.13,-8.50 18.08,-8.10 18.04,-7.71 18.04,-7.71 18.04,-7.71 17.42,-5.68 16.80,-3.66 16.06,-1.81 15.32,0.02 13.93,1.38 12.54,2.75 10.91,3.22 9.27,3.70 7.47,3.64 5.68,3.59 3.97,3.36 2.27,3.13 0.79,2.70 -0.67,2.26 -0.94,2.15 -1.20,2.03 -1.42,1.86 -1.65,1.68 -1.83,1.46 -2.01,1.24 -2.12,0.98 -2.24,0.72 -2.30,0.44 -2.35,0.16 -2.34,-0.11 -2.32,-0.40 -2.24,-0.67 -2.16,-0.94 -2.02,-1.19 -1.87,-1.43 -1.67,-1.64 -1.47,-1.84 -1.23,-1.99 -0.99,-2.14 -0.72,-2.23 -0.45,-2.32 -0.16,-2.34 0.11,-2.36 0.39,-2.31 0.67,-2.26 0.67,-2.26 L 0.67,-2.26 Z"/></g><g transform="translate(232.56410256410254 128.84374999999997) rotate(0 -5.384615384615387 24.871794871794876)" stroke="none"><path fill="#000000" d="M 1.86,0.39 Q 1.86,0.39 1.19,3.17 0.53,5.96 -0.36,10.08 -1.26,14.20 -2.40,19.06 -3.54,23.93 -4.47,28.76 -5.40,33.59 -5.95,37.53 -6.50,41.48 -6.90,43.92 -7.29,46.36 -8.22,46.96 -9.14,47.56 -9.19,47.73 -9.24,47.90 -9.33,48.06 -9.41,48.21 -9.54,48.34 -9.66,48.47 -9.81,48.57 -9.96,48.66 -10.12,48.72 -10.29,48.78 -10.47,48.79 -10.64,48.81 -10.82,48.78 -10.99,48.75 -11.16,48.69 -11.32,48.62 -11.47,48.51 -11.61,48.41 -11.72,48.27 -11.83,48.13 -11.91,47.98 -11.99,47.82 -12.03,47.64 -12.06,47.47 -12.06,47.29 -12.05,47.11 -11.98,47.56 -11.91,48.00 -11.98,47.78 -12.05,47.55 -12.05,47.31 -12.05,47.07 -11.97,46.85 -11.89,46.63 -11.74,46.44 -11.59,46.25 -11.39,46.12 -11.19,45.99 -10.96,45.93 -10.73,45.87 -10.49,45.89 -10.26,45.91 -10.04,46.00 -9.82,46.09 -9.64,46.25 -9.46,46.40 -9.34,46.61 -9.22,46.82 -9.17,47.05 -9.13,47.28 -9.16,47.52 -9.19,47.76 -9.29,47.97 -9.39,48.18 -9.56,48.35 -9.73,48.52 -9.94,48.63 -10.15,48.74 -10.39,48.77 -10.62,48.81 -10.86,48.77 -11.09,48.72 -11.30,48.61 -11.51,48.49 -11.67,48.32 -11.83,48.14 -11.93,47.92 -12.02,47.71 -12.04,47.47 -12.07,47.23 -12.01,47.00 -11.95,46.77 -11.83,46.57 -11.70,46.37 -11.52,46.22 -11.33,46.06 -11.11,45.98 -10.89,45.90 -10.65,45.89 -10.41,45.88 -10.18,45.95 -9.96,46.01 -9.76,46.15 -9.57,46.29 -9.36,46.92 -9.14,47.56 -9.19,47.73 -9.24,47.90 -9.33,48.06 -9.41,48.21 -9.54,48.34 -9.66,48.47 -9.81,48.57 -9.96,48.66 -10.12,48.72 -10.29,48.78 -10.47,48.79 -10.64,48.81 -10.82,48.78 -10.99,48.75 -11.16,48.69 -11.32,48.62 -11.47,48.51 -11.61,48.41 -11.72,48.27 -11.83,48.13 -11.91,47.98 -11.99,47.82 -12.03,47.64 -12.06,47.47 -12.06,47.29 -12.05,47.11 -11.05,46.52 -10.06,45.93 -9.70,43.51 -9.35,41.09 -8.83,37.07 -8.31,33.04 -7.43,28.15 -6.55,23.25 -5.50,18.40 -4.45,13.55 -3.67,9.39 -2.89,5.24 -2.37,2.42 -1.86,-0.39 -1.79,-0.61 -1.71,-0.82 -1.59,-1.02 -1.47,-1.21 -1.30,-1.37 -1.13,-1.53 -0.93,-1.64 -0.73,-1.75 -0.51,-1.82 -0.29,-1.88 -0.06,-1.89 0.16,-1.90 0.39,-1.85 0.61,-1.80 0.82,-1.70 1.02,-1.60 1.20,-1.45 1.38,-1.31 1.52,-1.12 1.65,-0.94 1.74,-0.73 1.83,-0.51 1.87,-0.29 1.90,-0.06 1.88,0.16 1.86,0.39 1.86,0.39 L 1.86,0.39 Z"/></g><g transform="translate(168.03205128205127 327.3052884615384) rotate(0 95.12820512820511 -88.46153846153844)" stroke="none"><path fill="#000000" d="M -0.58,-1.45 Q -0.58,-1.45 1.64,-2.30 3.86,-3.15 6.87,-4.38 9.87,-5.62 14.40,-7.47 18.93,-9.31 25.26,-12.15 31.59,-14.98 40.80,-18.70 50.01,-22.43 60.27,-26.36 70.52,-30.30 82.09,-35.06 93.65,-39.82 104.30,-44.78 114.94,-49.74 123.56,-54.49 132.19,-59.24 139.22,-63.89 146.24,-68.54 152.17,-73.01 158.09,-77.48 162.80,-81.57 167.50,-85.67 170.96,-89.15 174.41,-92.64 177.35,-95.88 180.29,-99.13 182.25,-101.66 184.21,-104.19 185.64,-106.14 187.06,-108.10 187.54,-109.11 188.01,-110.13 187.37,-112.07 186.73,-114.01 185.13,-116.91 183.54,-119.81 180.96,-124.04 178.39,-128.26 175.24,-133.31 172.09,-138.37 168.99,-143.64 165.88,-148.92 163.23,-153.83 160.59,-158.75 158.58,-162.77 156.58,-166.79 155.29,-169.38 154.01,-171.97 152.92,-173.84 151.84,-175.71 151.73,-175.92 151.62,-176.14 151.59,-176.38 151.55,-176.62 151.60,-176.86 151.64,-177.10 151.76,-177.31 151.88,-177.53 152.06,-177.69 152.24,-177.85 152.47,-177.95 152.69,-178.04 152.93,-178.07 153.17,-178.09 153.41,-178.03 153.65,-177.97 153.85,-177.84 154.06,-177.71 154.21,-177.52 154.36,-177.33 154.45,-177.10 154.53,-176.87 154.54,-176.63 154.55,-176.39 154.48,-176.15 154.40,-175.92 154.26,-175.72 154.12,-175.52 153.92,-175.38 153.73,-175.24 153.49,-175.17 153.26,-175.10 153.02,-175.10 152.78,-175.11 152.55,-175.19 152.32,-175.27 152.13,-175.43 151.94,-175.58 151.81,-175.78 151.68,-175.99 151.62,-176.22 151.56,-176.46 151.58,-176.70 151.59,-176.95 151.69,-177.17 151.79,-177.39 151.95,-177.57 152.11,-177.76 152.32,-177.88 152.53,-178.00 152.77,-178.04 153.01,-178.09 153.25,-178.06 153.49,-178.02 153.71,-177.92 153.93,-177.81 154.10,-177.64 154.28,-177.47 154.28,-177.47 154.27,-177.47 155.38,-175.34 156.49,-173.21 157.80,-170.64 159.11,-168.07 161.13,-164.11 163.15,-160.15 165.81,-155.31 168.48,-150.47 171.62,-145.27 174.77,-140.07 178.01,-135.06 181.24,-130.06 183.97,-125.86 186.70,-121.66 188.57,-118.62 190.44,-115.58 191.08,-113.84 191.73,-112.09 191.21,-110.29 190.69,-108.48 189.94,-107.52 189.19,-106.56 187.74,-104.56 186.29,-102.57 184.27,-99.97 182.24,-97.36 179.26,-94.07 176.28,-90.79 172.76,-87.23 169.23,-83.68 164.46,-79.52 159.68,-75.37 153.69,-70.85 147.71,-66.33 140.59,-61.62 133.47,-56.91 124.77,-52.12 116.07,-47.33 105.37,-42.34 94.67,-37.35 83.08,-32.56 71.49,-27.78 61.26,-23.84 51.03,-19.90 41.88,-16.18 32.72,-12.46 26.36,-9.58 20.00,-6.71 15.49,-4.83 10.99,-2.95 7.98,-1.66 4.97,-0.38 2.77,0.53 0.58,1.45 0.39,1.49 0.21,1.54 0.02,1.55 -0.16,1.55 -0.34,1.51 -0.52,1.47 -0.69,1.38 -0.86,1.30 -1.00,1.17 -1.15,1.05 -1.26,0.90 -1.36,0.75 -1.43,0.57 -1.50,0.40 -1.53,0.21 -1.56,0.02 -1.54,-0.15 -1.52,-0.34 -1.45,-0.52 -1.39,-0.70 -1.29,-0.85 -1.18,-1.01 -1.04,-1.14 -0.91,-1.26 -0.74,-1.36 -0.58,-1.45 -0.58,-1.45 L -0.58,-1.45 Z"/></g><g transform="translate(107.51923076923077 278.07451923076917) rotate(0 75.12820512820511 -45.38461538461537)" stroke="none"><path fill="#000000" d="M 0,-1.56 Q 0,-1.56 2.21,-1.52 4.42,-1.49 7.47,-1.90 10.52,-2.31 16.03,-3.93 21.55,-5.55 29.04,-8.59 36.52,-11.62 44.69,-15.83 52.86,-20.05 61.49,-24.93 70.13,-29.82 79.11,-34.99 88.09,-40.17 96.77,-45.45 105.44,-50.74 113.37,-56.21 121.31,-61.68 127.60,-66.93 133.89,-72.17 138.01,-76.29 142.13,-80.42 144.13,-83.14 146.14,-85.87 147.23,-88.17 148.33,-90.48 148.48,-90.68 148.63,-90.88 148.84,-91.02 149.05,-91.16 149.30,-91.22 149.54,-91.29 149.79,-91.27 150.04,-91.26 150.28,-91.17 150.51,-91.07 150.70,-90.91 150.89,-90.74 151.02,-90.52 151.15,-90.31 151.21,-90.06 151.26,-89.81 151.23,-89.56 151.20,-89.31 151.09,-89.08 150.99,-88.86 150.81,-88.67 150.64,-88.49 150.41,-88.37 150.19,-88.26 149.94,-88.22 149.69,-88.18 149.44,-88.22 149.19,-88.26 148.97,-88.38 148.75,-88.50 148.58,-88.69 148.40,-88.87 148.30,-89.10 148.19,-89.33 148.17,-89.58 148.14,-89.83 148.20,-90.08 148.25,-90.32 148.39,-90.54 148.52,-90.76 148.71,-90.92 148.90,-91.08 149.14,-91.17 149.37,-91.26 149.63,-91.28 149.88,-91.29 150.12,-91.22 150.36,-91.15 150.57,-91.01 150.78,-90.86 150.93,-90.66 151.08,-90.46 151.16,-90.22 151.24,-89.98 151.24,-89.73 151.24,-89.48 151.16,-89.24 151.07,-89.00 151.07,-89.00 151.07,-89.00 149.67,-86.65 148.26,-84.30 146.13,-81.43 144.00,-78.55 139.79,-74.35 135.58,-70.14 129.20,-64.82 122.82,-59.50 114.82,-53.98 106.83,-48.46 98.13,-43.15 89.43,-37.84 80.44,-32.66 71.46,-27.47 62.78,-22.55 54.11,-17.63 45.84,-13.34 37.57,-9.05 29.96,-5.95 22.35,-2.85 16.64,-1.15 10.92,0.54 7.67,1.01 4.42,1.49 2.21,1.52 0,1.56 -0.18,1.53 -0.37,1.51 -0.54,1.45 -0.72,1.38 -0.88,1.27 -1.03,1.16 -1.16,1.02 -1.28,0.88 -1.37,0.72 -1.46,0.55 -1.50,0.37 -1.55,0.18 -1.55,-0.00 -1.55,-0.18 -1.50,-0.37 -1.46,-0.55 -1.37,-0.72 -1.28,-0.88 -1.16,-1.02 -1.03,-1.16 -0.88,-1.27 -0.72,-1.38 -0.54,-1.45 -0.37,-1.51 -0.18,-1.53 0.00,-1.56 0.00,-1.56 L 0,-1.56 Z"/></g><g transform="translate(185.46794871794867 320.63862179487177) rotate(0 143.0769230769231 -25.641025641025664)" stroke="none"><path fill="#000000" d="M -0.69,-1.39 Q -0.69,-1.39 1.97,-2.69 4.63,-3.99 9.79,-6.17 14.95,-8.35 22.77,-11.19 30.58,-14.03 38.76,-17.00 46.93,-19.97 55.58,-23.00 64.22,-26.03 72.16,-28.93 80.09,-31.83 86.70,-34.39 93.31,-36.94 99.35,-39.49 105.39,-42.05 111.04,-44.74 116.68,-47.44 121.57,-50.05 126.46,-52.66 130.75,-55.10 135.04,-57.53 138.93,-59.75 142.82,-61.96 145.94,-63.79 149.06,-65.61 151.70,-67.26 154.34,-68.91 156.32,-70.33 158.30,-71.75 160.08,-72.85 161.85,-73.95 164.17,-74.89 166.49,-75.83 170.84,-76.39 175.18,-76.95 182.83,-76.59 190.47,-76.22 203.80,-73.40 217.13,-70.57 225.59,-68.34 234.04,-66.10 243.92,-61.58 253.79,-57.05 259.34,-53.79 264.88,-50.52 268.97,-46.38 273.05,-42.25 276.15,-36.87 279.26,-31.48 281.47,-25.62 283.67,-19.75 284.77,-14.40 285.86,-9.04 285.74,-4.01 285.61,1.02 284.81,5.55 284.00,10.08 282.91,13.80 281.82,17.53 281.06,19.70 280.29,21.88 279.46,23.63 278.63,25.37 278.45,25.51 278.27,25.65 278.05,25.72 277.84,25.79 277.62,25.80 277.39,25.80 277.18,25.73 276.96,25.65 276.78,25.52 276.60,25.38 276.48,25.20 276.35,25.01 276.29,24.80 276.22,24.58 276.24,24.35 276.25,24.13 276.33,23.92 276.41,23.71 276.56,23.54 276.70,23.36 276.89,23.25 277.09,23.13 277.31,23.08 277.53,23.03 277.75,23.05 277.97,23.08 278.18,23.17 278.38,23.26 278.55,23.42 278.71,23.57 278.82,23.77 278.93,23.97 278.96,24.19 279.00,24.41 278.97,24.64 278.93,24.86 278.83,25.06 278.72,25.26 278.56,25.41 278.40,25.57 278.19,25.67 277.99,25.76 277.76,25.79 277.54,25.81 277.32,25.76 277.10,25.72 276.91,25.60 276.71,25.49 276.57,25.32 276.42,25.14 276.33,24.94 276.25,24.73 276.24,24.50 276.22,24.28 276.28,24.06 276.34,23.84 276.47,23.65 276.59,23.47 276.59,23.47 276.59,23.47 277.20,22.24 277.82,21.01 278.56,18.90 279.30,16.79 280.36,13.20 281.42,9.62 282.20,5.28 282.99,0.94 283.13,-3.79 283.28,-8.53 282.25,-13.68 281.21,-18.83 279.09,-24.51 276.97,-30.18 274.06,-35.30 271.16,-40.42 267.34,-44.34 263.52,-48.26 258.11,-51.46 252.69,-54.66 243.02,-59.10 233.36,-63.55 224.97,-65.76 216.58,-67.98 203.46,-70.77 190.34,-73.57 182.92,-73.93 175.51,-74.30 171.49,-73.81 167.47,-73.32 165.36,-72.48 163.25,-71.63 161.54,-70.62 159.84,-69.61 157.79,-68.15 155.74,-66.68 153.07,-65.01 150.39,-63.34 147.26,-61.50 144.13,-59.67 140.23,-57.45 136.34,-55.23 132.03,-52.78 127.71,-50.33 122.77,-47.69 117.83,-45.05 112.13,-42.32 106.43,-39.59 100.36,-37.02 94.28,-34.44 87.65,-31.87 81.02,-29.30 73.07,-26.37 65.12,-23.45 56.50,-20.41 47.88,-17.37 39.72,-14.38 31.55,-11.39 23.82,-8.54 16.09,-5.69 11.03,-3.50 5.97,-1.31 3.33,0.04 0.69,1.39 0.52,1.46 0.34,1.52 0.15,1.54 -0.03,1.56 -0.21,1.53 -0.40,1.50 -0.57,1.43 -0.75,1.36 -0.90,1.25 -1.05,1.14 -1.18,1.00 -1.30,0.86 -1.38,0.69 -1.47,0.52 -1.51,0.34 -1.55,0.15 -1.55,-0.03 -1.54,-0.21 -1.49,-0.40 -1.44,-0.58 -1.35,-0.74 -1.26,-0.91 -1.14,-1.05 -1.01,-1.18 -0.85,-1.29 -0.69,-1.39 -0.69,-1.39 L -0.69,-1.39 Z"/></g><g transform="translate(534.6987179487178 148.84374999999997) rotate(0 -1.7948717948717672 112.3076923076923)" stroke="none"><path fill="#000000" d="M 1.54,0.23 Q 1.54,0.23 0.77,5.09 0.00,9.95 -0.92,16.72 -1.84,23.49 -2.68,33.26 -3.52,43.04 -4.03,53.67 -4.54,64.30 -4.91,75.16 -5.28,86.02 -5.74,96.25 -6.19,106.48 -6.98,115.72 -7.76,124.96 -8.24,133.13 -8.73,141.30 -8.78,148.43 -8.84,155.56 -8.43,161.95 -8.01,168.34 -7.25,174.28 -6.49,180.22 -5.43,185.37 -4.38,190.51 -3.34,194.76 -2.31,199.01 -1.01,202.36 0.29,205.72 1.71,208.60 3.14,211.48 4.19,213.61 5.25,215.75 6.07,217.02 6.89,218.29 7.50,221.37 8.11,224.44 8.00,224.72 7.88,225.00 7.68,225.23 7.49,225.46 7.23,225.62 6.96,225.77 6.67,225.84 6.37,225.90 6.07,225.86 5.77,225.83 5.49,225.70 5.22,225.57 5.00,225.36 4.78,225.15 4.64,224.88 4.50,224.61 4.45,224.31 4.41,224.01 4.46,223.71 4.51,223.42 4.65,223.15 4.80,222.88 5.02,222.67 5.24,222.47 5.52,222.34 5.79,222.22 6.09,222.18 6.40,222.15 6.69,222.22 6.99,222.29 7.25,222.45 7.51,222.60 7.70,222.84 7.89,223.07 8.01,223.35 8.12,223.64 8.13,223.94 8.14,224.24 8.06,224.53 7.98,224.83 7.81,225.08 7.63,225.33 7.39,225.51 7.15,225.69 6.86,225.78 6.57,225.88 6.27,225.88 5.97,225.87 5.68,225.78 5.39,225.68 5.15,225.49 4.91,225.31 4.74,225.05 4.57,224.80 4.49,224.51 4.42,224.22 4.43,223.91 4.45,223.61 4.45,223.61 4.45,223.61 4.34,221.69 4.23,219.76 3.56,218.34 2.89,216.91 1.84,214.78 0.78,212.65 -0.69,209.66 -2.16,206.67 -3.51,203.15 -4.87,199.63 -5.91,195.34 -6.96,191.04 -8.03,185.80 -9.11,180.56 -9.88,174.53 -10.65,168.51 -11.07,162.03 -11.50,155.54 -11.44,148.34 -11.39,141.14 -10.91,132.94 -10.43,124.73 -9.66,115.55 -8.89,106.36 -8.45,96.15 -8.01,85.93 -7.66,75.05 -7.31,64.18 -6.82,53.49 -6.33,42.81 -5.52,32.96 -4.71,23.11 -3.83,16.30 -2.95,9.50 -2.24,4.63 -1.54,-0.23 -1.49,-0.41 -1.44,-0.59 -1.35,-0.76 -1.25,-0.92 -1.12,-1.06 -1.00,-1.19 -0.84,-1.30 -0.68,-1.40 -0.50,-1.46 -0.32,-1.52 -0.14,-1.54 0.04,-1.56 0.23,-1.53 0.41,-1.50 0.59,-1.43 0.76,-1.36 0.91,-1.24 1.07,-1.13 1.19,-0.99 1.31,-0.84 1.39,-0.67 1.47,-0.51 1.51,-0.32 1.55,-0.14 1.55,0.04 1.54,0.23 1.54,0.23 L 1.54,0.23 Z"/></g></svg>