<svg version="1.1" xmlns="http://www.w3.org/2000/svg" viewBox="0 0 520.8038131438368 301.9842477966064" width="520.8038131438368" height="301.9842477966064" filter="invert(93%) hue-rotate(180deg)">
  <!-- svg-source:excalidraw -->
  
  <defs>
    <style class="style-fonts">
      @font-face {
        font-family: "Virgil";
        src: url("https://excalidraw.com/Virgil.woff2");
      }
      @font-face {
        font-family: "Cascadia";
        src: url("https://excalidraw.com/Cascadia.woff2");
      }
    </style>
  </defs>
  <rect x="0" y="0" width="520.8038131438368" height="301.9842477966064" fill="#ffffff"/><g stroke-linecap="round"><g transform="translate(12.419097429540216 191.15012879595162) rotate(0 -0.8076421428517335 49.42493560202419)"><path d="M-0.1 -0.96 C-0.36 15.55, -0.76 82.92, -0.87 99.6 M-1.61 1.15 C-2.02 17.27, -1.52 81.3, -1.42 97.87" stroke="#000000" stroke-width="2" fill="none"/></g></g><mask/><g stroke-linecap="round"><g transform="translate(11.702941563789238 291.7024816300684) rotate(0 40 0)"><path d="M0.37 -0.33 C13.62 -0.12, 65.55 0.11, 78.88 0.28 M-0.9 -1.55 C12.76 -1.64, 67.57 -1.73, 81.01 -1.69" stroke="#000000" stroke-width="2" fill="none"/></g></g><mask/><g stroke-linecap="round"><g transform="translate(90.80381314383675 290) rotate(0 -39.19235785714827 -49.42493560202419)"><path d="M-0.59 0.27 C-13.82 -16.46, -66.07 -83.05, -79.04 -99.69 M1.3 -0.63 C-11.56 -17.29, -63.26 -82.26, -76.67 -98.59" stroke="#000000" stroke-width="2" fill="none"/></g></g><mask/><g stroke-linecap="round"><g transform="translate(92.41909742954022 231.15012879595162) rotate(0 0 -30)"><path d="M0.86 0.79 C1.1 -9.45, 1.11 -51.15, 0.79 -61.15 M-0.15 0.16 C0.06 -10, 0.01 -49.99, 0.25 -60.22" stroke="#000000" stroke-width="2" fill="none"/></g><g transform="translate(92.41909742954022 231.15012879595162) rotate(0 0 -30)"><path d="M11.56 -30.62 C5.82 -40.52, 6.58 -47.18, 0.63 -59.54 M10.01 -32.11 C7.3 -39.63, 4.27 -48.81, 0.46 -59.42" stroke="#000000" stroke-width="2" fill="none"/></g><g transform="translate(92.41909742954022 231.15012879595162) rotate(0 0 -30)"><path d="M-8.96 -30.82 C-9.71 -40.81, -3.95 -47.43, 0.63 -59.54 M-10.51 -32.31 C-7.06 -39.77, -3.92 -48.9, 0.46 -59.42" stroke="#000000" stroke-width="2" fill="none"/></g></g><mask/><g stroke-linecap="round"><g transform="translate(10.803813143836749 50) rotate(0 0 50)"><path d="M-0.49 0.61 C-0.8 17.29, -0.84 84.51, -0.79 101.09 M1.45 -0.12 C1.43 16.17, 1.93 82.61, 1.51 99.53" stroke="#000000" stroke-width="2" fill="none"/></g></g><mask/><g stroke-linecap="round"><g transform="translate(10.803813143836749 150) rotate(0 40 0)"><path d="M-0.61 -0.79 C13 -0.77, 67.28 -1.12, 80.85 -0.98 M1.27 1.41 C14.86 1.65, 67.15 0.05, 80.34 0.04" stroke="#000000" stroke-width="2" fill="none"/></g></g><mask/><g stroke-linecap="round"><g transform="translate(90.80381314383675 150) rotate(0 -40 -50)"><path d="M0.72 0.56 C-12.87 -16.28, -67.2 -84.21, -80.74 -101.01 M-0.36 -0.19 C-13.63 -16.92, -64.88 -83.53, -78.41 -100" stroke="#000000" stroke-width="2" fill="none"/></g></g><mask/><g stroke-linecap="round"><g transform="translate(90.80381314383675 90) rotate(0 30 0)"><path d="M1.06 0.82 C10.97 0.5, 49.27 -1.04, 58.96 -1.06 M0.15 0.21 C10.47 -0.08, 50.87 0.16, 61.13 -0.07" stroke="#000000" stroke-width="2" fill="none"/></g><g transform="translate(90.80381314383675 90) rotate(0 30 0)"><path d="M34.38 8.65 C38.38 6.13, 48.61 6.33, 61.75 -0.12 M32.43 10.38 C40.18 7, 48.65 4.7, 61.01 -0.78" stroke="#000000" stroke-width="2" fill="none"/></g><g transform="translate(90.80381314383675 90) rotate(0 30 0)"><path d="M34.24 -11.87 C38.43 -9.14, 48.69 -3.67, 61.75 -0.12 M32.29 -10.14 C39.99 -7.77, 48.5 -4.32, 61.01 -0.78" stroke="#000000" stroke-width="2" fill="none"/></g></g><mask/><g stroke-linecap="round"><g transform="translate(170.80381314383675 50) rotate(0 0 50)"><path d="M0.76 0.93 C1 17.73, 0.54 83.54, 0.37 99.97 M-0.3 0.38 C-0.1 17.44, -0.24 84.79, -0.38 101.49" stroke="#000000" stroke-width="2" fill="none"/></g></g><mask/><g stroke-linecap="round"><g transform="translate(170.80381314383675 150) rotate(0 40 0)"><path d="M-0.14 -0.85 C13.41 -0.94, 67.69 -0.7, 81.09 -0.54 M-1.67 1.31 C11.83 1.38, 67.16 0.68, 80.71 0.72" stroke="#000000" stroke-width="2" fill="none"/></g></g><mask/><g stroke-linecap="round"><g transform="translate(250.80381314383675 150) rotate(0 -40 -50)"><path d="M-0.19 -0.77 C-13.67 -17.3, -67.2 -82.34, -80.62 -99.05 M-1.74 1.44 C-14.85 -15.43, -65.5 -83.72, -78.24 -100.68" stroke="#000000" stroke-width="2" fill="none"/></g></g><mask/><g stroke-linecap="round"><g transform="translate(270.80381314383675 170) rotate(0 0 0)"><path d="M-1.16 -0.05 C-1.4 0.27, -1.27 1.23, -1.02 1.09" stroke="#000000" stroke-width="2.5" fill="none" stroke-dasharray="8 10"/></g></g><mask/><g stroke-linecap="round"><g transform="translate(290.80381314383675 190) rotate(0 40 0)"><path d="M-0.99 0.48 C12.25 0.42, 65.55 0.39, 78.93 0.37 M0.69 -0.32 C14.33 -0.81, 67.56 -1.31, 81.08 -1.56" stroke="#000000" stroke-width="2" fill="none"/></g></g><mask/><g stroke-linecap="round"><g transform="translate(370.80381314383675 190) rotate(0 0 50)"><path d="M0.68 0.77 C0.8 17.5, 1.49 83.64, 1.17 100.09 M-0.43 0.13 C-0.4 17.09, 0.59 84.94, 0.84 101.67" stroke="#000000" stroke-width="2" fill="none"/></g></g><mask/><g stroke-linecap="round"><g transform="translate(370.80381314383675 290) rotate(0 -40 -50)"><path d="M0.66 -0.27 C-12.46 -16.92, -66.6 -83.64, -79.92 -100.46 M-0.45 -1.45 C-13.62 -17.9, -67.63 -82.66, -80.82 -99.17" stroke="#000000" stroke-width="2" fill="none"/></g></g><mask/><g stroke-linecap="round"><g transform="translate(270.80381314383675 150) rotate(0 70 0)"><path d="M-0.66 0.31 C22.74 0.25, 116.87 0.55, 140.37 0.68" stroke="#000000" stroke-width="2.5" fill="none" stroke-dasharray="1.5 8"/></g></g><mask/><g stroke-linecap="round"><g transform="translate(212.2947358432562 170) rotate(0 10 46.55172413793102)"><path d="M0 0 C-6.67 15.52, -50 83.1, -40 93.1 C-30 103.1, 43.33 65.52, 60 60 M0 0 C-6.67 15.52, -50 83.1, -40 93.1 C-30 103.1, 43.33 65.52, 60 60" stroke="#000000" stroke-width="2" fill="none"/></g><g transform="translate(212.2947358432562 170) rotate(0 10 46.55172413793102)"><path d="M38.05 80.45 C43.13 75.72, 48.21 70.99, 60 60 M38.05 80.45 C46.26 72.8, 54.48 65.15, 60 60" stroke="#000000" stroke-width="2" fill="none"/></g><g transform="translate(212.2947358432562 170) rotate(0 10 46.55172413793102)"><path d="M30.04 61.56 C36.97 61.2, 43.91 60.84, 60 60 M30.04 61.56 C41.25 60.98, 52.46 60.39, 60 60" stroke="#000000" stroke-width="2" fill="none"/></g></g><mask/><g stroke-linecap="round"><g transform="translate(410.80381314383675 210) rotate(0 50 -50)"><path d="M0 0 C16.67 -6.67, 100 -23.33, 100 -40 C100 -56.67, 16.67 -90, 0 -100 M0 0 C16.67 -6.67, 100 -23.33, 100 -40 C100 -56.67, 16.67 -90, 0 -100" stroke="#000000" stroke-width="2" fill="none"/></g><g transform="translate(410.80381314383675 210) rotate(0 50 -50)"><path d="M29.83 -96.78 C20.64 -97.77, 11.45 -98.76, 0 -100 M29.83 -96.78 C23.18 -97.5, 16.54 -98.22, 0 -100" stroke="#000000" stroke-width="2" fill="none"/></g><g transform="translate(410.80381314383675 210) rotate(0 50 -50)"><path d="M20.78 -78.36 C14.38 -85.03, 7.98 -91.69, 0 -100 M20.78 -78.36 C16.15 -83.18, 11.52 -88, 0 -100" stroke="#000000" stroke-width="2" fill="none"/></g></g><mask/><g stroke-linecap="round"><g transform="translate(370.80381314383675 110) rotate(0 0 -50)"><path d="M0 0 C0 -16.67, 0 -83.33, 0 -100 M0 0 C0 -16.67, 0 -83.33, 0 -100" stroke="#000000" stroke-width="2" fill="none"/></g></g><mask/><g stroke-linecap="round"><g transform="translate(370.80381314383675 10) rotate(0 -40 50)"><path d="M0 0 C-13.33 16.67, -66.67 83.33, -80 100 M0 0 C-13.33 16.67, -66.67 83.33, -80 100" stroke="#000000" stroke-width="2" fill="none"/></g></g><mask/><g stroke-linecap="round"><g transform="translate(290.80381314383675 110) rotate(0 40 0)"><path d="M0 0 C13.33 0, 66.67 0, 80 0 M0 0 C13.33 0, 66.67 0, 80 0" stroke="#000000" stroke-width="2" fill="none"/></g></g><mask/></svg>